<svg width="2180" height="574" viewBox="0 0 2180 574" fill="none" xmlns="http://www.w3.org/2000/svg">
<g clip-path="url(#clip0_22_171)">
<circle cx="292" cy="287" r="250" fill="#96BBAE"/>
<path d="M45 320C129.86 267.594 181.538 243.316 275.938 211.504C363.519 181.989 507.012 160.035 507.012 160.035" stroke="#333333" stroke-opacity="0.63"/>
<path d="M47.9999 344C133.542 288.544 185.884 263.254 281.905 230.988C370.991 201.051 517.808 181.335 517.808 181.335" stroke="#333333" stroke-opacity="0.63"/>
<path d="M54.238 366.688C140.186 310.502 192.821 284.948 289.45 252.493C379.101 222.382 527 203 527 203" stroke="#333333" stroke-opacity="0.63"/>
<path d="M61.1309 384.378C147.15 328.973 199.75 303.654 296.188 271.235C385.661 241.157 533 221 533 221" stroke="#333333" stroke-opacity="0.63"/>
<path d="M69.8245 400.753C154.926 345.719 206.986 320.603 302.467 288.513C391.052 258.74 537 239 537 239" stroke="#333333" stroke-opacity="0.63"/>
<path d="M79.0412 417.119C162.82 361.469 214.21 336.287 308.691 304.584C396.347 275.171 541.242 257.088 541.242 257.088" stroke="#333333" stroke-opacity="0.63"/>
<path d="M187.156 59.7668C262.453 45.8598 281.25 67.0153 302.396 96.1777C323.542 125.34 354.714 190.388 354.714 190.388" stroke="#333333" stroke-opacity="0.63"/>
<path d="M461.944 470.471C375.426 485.565 354.108 461.088 330.187 427.401C306.267 393.713 271.253 318.754 271.253 318.754" stroke="#333333" stroke-opacity="0.63"/>
<path d="M178 66C245.732 56.1891 263.653 76.5942 284.033 104.526C304.413 132.458 335.364 194.105 335.364 194.105" stroke="#333333" stroke-opacity="0.63"/>
<path d="M471.875 460.667C393.632 471.209 373.193 447.466 350.004 415.013C326.814 382.56 291.816 311.095 291.816 311.095" stroke="#333333" stroke-opacity="0.63"/>
<path d="M162 74.1103C225.429 66.2772 242.719 86.0762 262.487 113.087C282.254 140.097 312.7 199.4 312.7 199.4" stroke="#333333" stroke-opacity="0.63"/>
<path d="M483.163 448.28C410.789 456.49 391.308 433.732 369.085 402.726C346.862 371.72 312.836 303.793 312.836 303.793" stroke="#333333" stroke-opacity="0.63"/>
<path d="M146.368 84.4915C207.183 77.3406 223.896 96.507 243.031 122.631C262.165 148.755 291.744 206.032 291.744 206.032" stroke="#333333" stroke-opacity="0.63"/>
<path d="M493.607 433.918C426.33 441.153 408.073 419.792 387.217 390.717C366.36 361.641 334.304 298.028 334.304 298.028" stroke="#333333" stroke-opacity="0.63"/>
<path d="M130.791 97.3838C189.192 90.1716 205.112 108.401 223.313 133.271C241.514 158.14 269.546 212.742 269.546 212.742" stroke="#333333" stroke-opacity="0.63"/>
<path d="M504.889 418.775C441.555 425.959 424.507 406.043 405.06 378.91C385.612 351.777 355.836 292.334 355.836 292.334" stroke="#333333" stroke-opacity="0.63"/>
<path d="M116.071 110.5C171.53 103.979 186.77 121.457 204.219 145.28C221.668 169.103 248.641 221.334 248.641 221.334" stroke="#333333" stroke-opacity="0.63"/>
<path d="M514.274 402.482C456.875 408.655 441.298 390.429 423.503 365.623C405.709 340.816 378.359 286.542 378.359 286.542" stroke="#333333" stroke-opacity="0.63"/>
<path d="M103.248 122.472C155.611 116.457 170.055 133.032 186.601 155.615C203.148 178.198 228.769 227.679 228.769 227.679" stroke="#333333" stroke-opacity="0.63"/>
<path d="M521.099 387.586C468.779 393.212 454.581 376.6 438.361 353.989C422.142 331.377 397.213 281.907 397.213 281.907" stroke="#333333" stroke-opacity="0.63"/>
<path d="M291.801 37.1248C291.801 37.1248 281.3 37.4803 271.878 42.715C262.455 47.9496 258.148 58.9005 258.148 58.9005" stroke="#333333" stroke-opacity="0.63" stroke-linecap="round"/>
<path d="M267.005 38.1901C267.005 38.1901 258.591 38.4749 251.04 42.6696C243.49 46.8642 240.038 55.6392 240.038 55.6392" stroke="#333333" stroke-opacity="0.63" stroke-linecap="round"/>
<path d="M243.659 42.0409C243.659 42.0409 237.306 42.256 231.607 45.4226C225.907 48.5892 223.301 55.2136 223.301 55.2136" stroke="#333333" stroke-opacity="0.63" stroke-linecap="round"/>
<path d="M219.669 47.8746C219.669 47.8746 215.908 48.0019 212.534 49.8765C209.16 51.751 207.618 55.6726 207.618 55.6726" stroke="#333333" stroke-opacity="0.63" stroke-linecap="round"/>
<path d="M317.379 38.3578C317.379 38.3578 303.891 38.8144 291.789 45.5376C279.688 52.2609 274.155 66.3258 274.155 66.3258" stroke="#333333" stroke-opacity="0.63" stroke-linecap="round"/>
<path d="M346.852 43.4078C346.852 43.4078 329.2 44.0055 313.36 52.805C297.521 61.6046 290.28 80.0131 290.28 80.0131" stroke="#333333" stroke-opacity="0.63"/>
<path d="M371.989 50.6196C371.989 50.6196 350.291 51.3542 330.821 62.1706C311.352 72.987 302.451 95.6146 302.451 95.6146" stroke="#333333" stroke-opacity="0.63"/>
<path d="M395.743 59.9672C395.743 59.9672 370.092 60.8356 347.075 73.6226C324.058 86.4097 313.536 113.16 313.536 113.16" stroke="#333333" stroke-opacity="0.63"/>
<path d="M416.728 71.761C416.728 71.761 387.866 72.7381 361.969 87.1254C336.072 101.513 324.233 131.611 324.233 131.611" stroke="#333333" stroke-opacity="0.63"/>
<path d="M434.887 82.9614C434.887 82.9614 403.405 84.0272 375.157 99.7205C346.909 115.414 333.996 148.244 333.996 148.244" stroke="#333333" stroke-opacity="0.63"/>
<path d="M453.952 97.5624C453.952 97.5624 419.905 98.715 389.355 115.687C358.805 132.659 344.839 168.165 344.839 168.165" stroke="#333333" stroke-opacity="0.63"/>
<path d="M486.014 129.536C486.014 129.536 438.035 134.475 417 147C395.965 159.525 383 183 383 183" stroke="#333333" stroke-opacity="0.63"/>
<path d="M110 396.912C110 396.912 195.384 376.766 226.5 357C257.616 337.234 268.995 319.771 268.995 319.771" stroke="#333333" stroke-opacity="0.63"/>
<path d="M498.425 146.207C498.425 146.207 462 147.707 442 155C422 162.293 411 177 411 177" stroke="#333333" stroke-opacity="0.63"/>
<path d="M79 417C79 417 164.013 408.705 209.544 388.892C255.076 369.079 278.222 332.955 278.222 332.955" stroke="#333333" stroke-opacity="0.63"/>
<path d="M472.49 114.394C472.49 114.394 436.112 115.625 403.471 133.759C370.829 151.893 355.907 189.829 355.907 189.829" stroke="#333333" stroke-opacity="0.63"/>
<path d="M95.2189 440.498C95.2189 440.498 160.651 434.25 213.5 414C266.349 393.75 286.252 352.165 286.252 352.165" stroke="#333333" stroke-opacity="0.63"/>
<path d="M110.711 459.886C110.711 459.886 174.907 453.756 226.758 433.889C278.609 414.022 298.136 373.222 298.136 373.222" stroke="#333333" stroke-opacity="0.63"/>
<path d="M132.132 478.716C132.132 478.716 192.954 472.908 242.079 454.085C291.205 435.262 309.706 396.607 309.706 396.607" stroke="#333333" stroke-opacity="0.63"/>
<path d="M155.762 496.915C155.762 496.915 212.999 491.45 259.23 473.736C305.462 456.022 322.872 419.645 322.872 419.645" stroke="#333333" stroke-opacity="0.63"/>
<path d="M180.718 511.484C180.718 511.484 234.719 506.327 278.336 489.615C321.954 472.903 338.379 438.582 338.379 438.582" stroke="#333333" stroke-opacity="0.63"/>
<path d="M213.742 524.547C213.742 524.547 263.167 519.827 303.087 504.531C343.008 489.235 358.042 457.823 358.042 457.823" stroke="#333333" stroke-opacity="0.63"/>
<path d="M245.251 532.729C245.251 532.729 291.262 528.335 328.425 514.096C365.589 499.856 379.584 470.614 379.584 470.614" stroke="#333333" stroke-opacity="0.63"/>
<path d="M286.5 536.5C286.5 536.5 308.241 538.393 344.5 524.5C380.759 510.607 404.426 475.201 404.426 475.201" stroke="#333333" stroke-opacity="0.63"/>
<path d="M365 526C365 526 403.5 506.5 412.5 497.5C421.5 488.5 427.506 476 427.506 476" stroke="#333333" stroke-opacity="0.63"/>
<path d="M426.585 497.82C426.585 497.82 435.75 489 437.5 486.5C439.25 484 446 473 446 473" stroke="#333333" stroke-opacity="0.63"/>
<path d="M226.091 229.161C226.091 229.161 163.953 192.845 135.82 171.104C113.245 153.658 94.7035 132.402 94.7035 132.402" stroke="#333333" stroke-opacity="0.63"/>
<path d="M196.858 240.272C196.858 240.272 141.8 208.238 116.914 188.989C96.9436 173.542 80.5965 154.653 80.5965 154.653" stroke="#333333" stroke-opacity="0.63"/>
<path d="M172.709 250.903C172.709 250.903 123.96 222.54 101.926 205.497C84.2445 191.82 69.7706 175.096 69.7706 175.096" stroke="#333333" stroke-opacity="0.63"/>
<path d="M147.95 262.117C147.95 262.117 106.058 237.744 87.124 223.098C71.9298 211.345 59.4921 196.974 59.4921 196.974" stroke="#333333" stroke-opacity="0.63"/>
<path d="M122.988 275.486C122.988 275.486 88.7084 255.542 73.2145 243.558C60.7813 233.941 50.6036 222.18 50.6036 222.18" stroke="#333333" stroke-opacity="0.63"/>
<path d="M93.2993 289.797C93.2993 289.797 69.9139 276.191 59.3439 268.015C50.8618 261.454 43.9185 253.432 43.9185 253.432" stroke="#333333" stroke-opacity="0.63"/>
<path d="M68.5728 305.856C68.5728 305.856 56.0688 298.581 50.4172 294.21C45.8819 290.702 42.1694 286.412 42.1694 286.412" stroke="#333333" stroke-opacity="0.63"/>
<path d="M205.977 187.136C205.977 187.136 163.098 162.967 143.942 148.057C128.57 136.092 116.281 121.081 116.281 121.081" stroke="#333333" stroke-opacity="0.63"/>
<path d="M427.932 275.542C427.932 275.542 420.419 287.609 415.876 292.948C412.231 297.232 407.745 300.588 407.745 300.588" stroke="#333333" stroke-opacity="0.63"/>
<path d="M455.505 270.101C455.505 270.101 441.219 293.045 432.581 303.197C425.65 311.343 417.121 317.725 417.121 317.725" stroke="#333333" stroke-opacity="0.63"/>
<path d="M481.877 266.498C481.877 266.498 461.264 299.604 448.8 314.251C438.799 326.006 426.492 335.214 426.492 335.214" stroke="#333333" stroke-opacity="0.63"/>
<path d="M514.492 260.785C514.492 260.785 486.165 306.28 469.037 326.409C455.293 342.562 438.38 355.217 438.38 355.217" stroke="#333333" stroke-opacity="0.63"/>
<path d="M541.342 264.358C541.342 264.358 508.707 316.773 488.974 339.964C473.139 358.574 453.654 373.154 453.654 373.154" stroke="#333333" stroke-opacity="0.63"/>
<path d="M542.035 300.319C542.035 300.319 516.556 341.241 501.15 359.347C488.787 373.876 473.575 385.259 473.575 385.259" stroke="#333333" stroke-opacity="0.63"/>
<path d="M534.585 347.166C534.585 347.166 522.102 367.215 514.554 376.086C508.497 383.204 501.044 388.781 501.044 388.781" stroke="#333333" stroke-opacity="0.63"/>
<path d="M660.6 443.4C653.4 438.067 647.8 430.467 643.8 420.6C640.067 410.467 638.333 401.133 638.6 392.6C638.333 376.067 639.667 359 642.6 341.4C645.8 323.8 649.933 307.4 655 292.2C658.467 282.6 662.2 272.867 666.2 263C670.2 253.133 674.333 243.8 678.6 235C682.867 225.933 687 218.333 691 212.2C699.267 198.067 707.667 186.733 716.2 178.2C725 169.667 731.667 164.067 736.2 161.4C743.667 157.667 752.6 154.867 763 153C773.4 150.867 783.533 150.867 793.4 153C800.333 154.867 807.133 157.533 813.8 161C820.733 164.467 826.733 168.733 831.8 173.8C834.733 176.467 837 179.267 838.6 182.2C840.2 185.133 841 188.2 841 191.4C841 195.4 839.133 199.267 835.4 203C831.667 206.733 827.533 209.267 823 210.6C818.467 211.933 815 211.133 812.6 208.2C809.133 202.867 805.8 198.867 802.6 196.2C799.4 193.267 796.067 191.133 792.6 189.8C789.667 187.933 785.667 187 780.6 187C775.8 187 770.6 187.933 765 189.8C759.4 191.4 754.067 194.333 749 198.6C747.133 200.2 744.6 202.467 741.4 205.4C738.467 208.333 735.267 211.933 731.8 216.2C728.6 220.2 725.667 224.6 723 229.4C715.533 241.667 709.133 254.2 703.8 267C698.733 279.533 694.2 293.267 690.2 308.2C688.333 314.333 686.333 321.933 684.2 331C682.067 339.8 680.067 348.6 678.2 357.4C676.6 366.2 675.533 373.933 675 380.6C674.2 389.933 674.467 397.267 675.8 402.6C677.133 407.933 679.933 411.533 684.2 413.4C688.467 415 694.467 414.867 702.2 413C709.133 411.4 716.067 408.733 723 405C730.2 401 737.133 396.067 743.8 390.2C750.467 384.067 756.467 376.867 761.8 368.6C766.6 359.533 770.467 351.267 773.4 343.8C776.6 336.333 778.2 330.467 778.2 326.2C778.467 321.667 776.2 319.533 771.4 319.8C760.467 320.067 751.667 319.667 745 318.6C738.6 317.533 734.2 314.867 731.8 310.6C728.333 309.8 726.467 306.867 726.2 301.8C726.2 296.733 728.733 292.6 733.8 289.4C738.333 287 744.6 285.533 752.6 285C760.6 284.467 768.733 284.733 777 285.8C785.533 286.6 792.333 288.467 797.4 291.4C803.267 294.333 807.267 298.733 809.4 304.6C811.8 310.2 813 316.2 813 322.6C813.267 329 812.867 335 811.8 340.6C809.4 349.933 806.067 359 801.8 367.8C797.8 376.6 792.333 385.533 785.4 394.6C781.4 400.2 775.933 406.067 769 412.2C762.067 418.333 754.733 423.8 747 428.6C739.533 433.667 732.467 437.667 725.8 440.6C715.133 445.4 703.933 448.867 692.2 451C680.733 453.133 670.2 450.6 660.6 443.4ZM844.256 416.6C843.19 414.467 840.79 412.333 837.056 410.2C833.59 408.067 831.856 406.467 831.856 405.4C831.856 404.333 831.19 402.733 829.856 400.6C828.79 398.2 827.723 396.467 826.656 395.4C825.323 393.8 825.723 389.933 827.856 383.8C829.99 377.4 833.19 369.667 837.456 360.6C841.723 351.533 846.39 342.333 851.456 333C853.59 330.867 855.723 328.067 857.856 324.6C859.99 321.133 861.59 318.867 862.656 317.8C862.656 316.733 863.056 315.8 863.856 315C864.656 313.933 865.59 313.4 866.656 313.4L869.856 307C870.39 305.933 871.99 303.8 874.656 300.6C877.59 297.4 881.056 293.933 885.056 290.2C889.056 286.2 893.056 282.467 897.056 279C901.323 275.533 904.79 273 907.456 271.4C913.056 267.667 918.79 265.933 924.656 266.2C930.79 266.467 935.99 268.333 940.256 271.8C941.056 272.6 942.79 274.2 945.456 276.6C948.39 279 951.59 281.667 955.056 284.6C958.79 287.533 961.99 290.2 964.656 292.6L979.456 305.8L972.656 325.8C969.19 336.467 968.256 345.8 969.856 353.8C971.456 361.8 973.99 368.733 977.456 374.6C978.79 377.533 980.523 379.8 982.656 381.4C985.056 383 988.123 384.067 991.856 384.6C993.99 384.867 995.99 385.667 997.856 387C999.723 388.333 1000.66 390.467 1000.66 393.4C1000.66 399.8 999.456 404.467 997.056 407.4C994.923 410.067 992.523 411.667 989.856 412.2C981.056 413.267 972.656 412.333 964.656 409.4C956.656 406.467 949.456 398.867 943.056 386.6C941.99 385 940.523 382.067 938.656 377.8C937.056 373.267 936.123 370.333 935.856 369C934.79 370.333 933.323 372.067 931.456 374.2C929.856 376.067 928.256 377.8 926.656 379.4C907.723 398.6 891.456 411.133 877.856 417C864.523 422.6 853.323 422.467 844.256 416.6ZM866.256 383.4C868.123 383.667 871.056 382.733 875.056 380.6C879.056 378.2 884.39 374.333 891.056 369C900.123 361.267 907.59 354.867 913.456 349.8C919.323 344.733 925.056 338.2 930.656 330.2L939.456 315.8C936.79 309.667 934.39 305.667 932.256 303.8C930.123 301.933 927.99 301 925.856 301C922.39 301 918.256 303.267 913.456 307.8C908.656 312.067 903.19 318.467 897.056 327C891.19 335.267 884.523 345.667 877.056 358.2C873.59 364.067 870.923 369.8 869.056 375.4C867.19 380.733 866.256 383.4 866.256 383.4ZM1020.77 414.2C1018.37 412.333 1015.71 409.933 1012.77 407C1010.11 404.067 1009.17 399.933 1009.97 394.6C1010.77 387.133 1011.84 380.6 1013.17 375C1014.51 369.133 1016.11 362.467 1017.97 355C1018.51 351.8 1019.84 346.333 1021.97 338.6C1024.37 330.867 1027.17 322.467 1030.37 313.4C1033.57 304.333 1036.91 295.8 1040.37 287.8C1043.84 279.533 1046.91 273.4 1049.57 269.4C1052.51 266.733 1056.77 265.4 1062.37 265.4C1068.24 265.4 1072.24 266.467 1074.37 268.6C1077.31 271 1078.24 275.267 1077.17 281.4C1076.11 287.267 1072.37 296.467 1065.97 309C1064.64 312.2 1062.91 315.667 1060.77 319.4C1058.91 322.867 1057.57 325.8 1056.77 328.2C1055.97 330.333 1056.24 331.267 1057.57 331C1059.17 328.067 1062.11 324.733 1066.37 321C1070.64 317 1075.17 313.133 1079.97 309.4C1084.77 305.667 1089.31 302.333 1093.57 299.4C1097.84 296.467 1100.77 294.6 1102.37 293.8C1104.51 292.467 1106.91 291.4 1109.57 290.6C1112.51 289.533 1114.51 288.733 1115.57 288.2C1121.71 285.267 1128.37 284.2 1135.57 285C1143.04 285.533 1147.57 287.8 1149.17 291.8C1149.44 293.933 1150.24 295.533 1151.57 296.6C1153.17 297.667 1153.97 298.2 1153.97 298.2C1155.04 298.2 1155.57 298.6 1155.57 299.4C1155.84 300.2 1155.97 300.6 1155.97 300.6C1155.97 302.467 1154.11 305.133 1150.37 308.6C1146.91 312.067 1143.04 313.933 1138.77 314.2C1135.31 314.467 1132.24 315.133 1129.57 316.2C1126.91 317.267 1123.71 318.6 1119.97 320.2C1109.84 326.067 1100.64 331.267 1092.37 335.8C1084.37 340.333 1076.11 347.267 1067.57 356.6C1065.71 358.733 1063.71 360.733 1061.57 362.6C1059.44 364.467 1057.31 367.133 1055.17 370.6C1053.84 371.933 1052.51 374.867 1051.17 379.4C1049.84 383.933 1048.64 388.333 1047.57 392.6C1046.77 396.6 1046.37 399 1046.37 399.8C1046.37 399.8 1045.97 401.133 1045.17 403.8C1044.37 406.2 1043.04 408.6 1041.17 411C1037.97 415.267 1034.77 417.933 1031.57 419C1028.64 420.067 1025.04 418.467 1020.77 414.2ZM1284.91 423.4C1280.91 423.4 1277.05 422.2 1273.31 419.8C1269.58 417.133 1266.51 413.533 1264.11 409C1261.71 404.2 1260.51 398.6 1260.51 392.2C1260.51 388.2 1261.18 382.6 1262.51 375.4C1264.11 367.933 1266.38 358.6 1269.31 347.4C1269.85 343.667 1270.25 341.267 1270.51 340.2C1271.05 339.133 1271.31 338.067 1271.31 337C1271.31 336.467 1271.18 336.067 1270.91 335.8C1270.91 335.267 1270.65 335 1270.11 335C1267.98 335 1265.05 336.467 1261.31 339.4C1257.85 342.067 1253.85 345.267 1249.31 349C1248.51 349.533 1247.58 350.2 1246.51 351C1245.71 351.8 1244.78 352.6 1243.71 353.4C1242.91 354.2 1241.98 355 1240.91 355.8C1238.25 357.4 1234.11 360.467 1228.51 365C1223.18 369.533 1217.58 374.333 1211.71 379.4C1206.11 384.467 1201.18 388.733 1196.91 392.2C1194.78 393.8 1192.91 395.133 1191.31 396.2C1189.98 397.267 1189.05 397.8 1188.51 397.8C1187.98 397.8 1185.85 397.133 1182.11 395.8C1178.65 394.2 1175.18 392.067 1171.71 389.4C1168.51 386.467 1166.91 383.133 1166.91 379.4C1166.91 377 1167.85 372.2 1169.71 365C1171.85 357.8 1174.78 349.267 1178.51 339.4C1182.25 329.533 1186.51 319.533 1191.31 309.4C1192.38 307 1193.18 303.8 1193.71 299.8C1194.25 295.8 1194.78 291.933 1195.31 288.2C1196.11 284.2 1197.45 281.267 1199.31 279.4C1200.11 278.067 1201.05 277.133 1202.11 276.6C1203.45 275.8 1204.78 275.4 1206.11 275.4C1208.78 275.4 1211.31 276.067 1213.71 277.4C1216.11 278.467 1218.38 280.333 1220.51 283C1224.51 287.267 1226.65 292.333 1226.91 298.2C1227.45 303.8 1227.05 309.267 1225.71 314.6C1224.38 319.933 1222.91 324.333 1221.31 327.8C1219.71 331 1218.91 332.333 1218.91 331.8C1219.98 331.267 1221.45 329.933 1223.31 327.8C1225.45 325.667 1229.05 323.133 1234.11 320.2C1241.05 314.867 1246.38 311.133 1250.11 309C1253.85 306.6 1256.65 304.867 1258.51 303.8C1260.65 302.733 1262.51 301.533 1264.11 300.2C1265.45 299.133 1266.38 298.467 1266.91 298.2C1267.71 297.933 1268.11 297.8 1268.11 297.8C1268.91 297.8 1270.25 297.267 1272.11 296.2C1274.25 295.133 1276.25 294.6 1278.11 294.6C1280.78 294.6 1283.58 295.267 1286.51 296.6C1289.45 297.667 1291.98 299.267 1294.11 301.4C1296.25 303.267 1297.31 305.267 1297.31 307.4C1297.31 308.2 1297.58 308.867 1298.11 309.4C1298.65 309.933 1299.18 310.6 1299.71 311.4C1301.05 313 1302.51 315.267 1304.11 318.2C1305.98 320.867 1306.91 325.267 1306.91 331.4C1306.91 335.667 1305.98 341.933 1304.11 350.2C1302.25 358.467 1300.25 366.6 1298.11 374.6C1295.98 382.867 1294.91 389.533 1294.91 394.6C1295.18 399.4 1295.71 403.133 1296.51 405.8C1297.31 408.2 1297.71 410.2 1297.71 411.8C1297.71 413.933 1296.65 416.467 1294.51 419.4C1292.38 422.067 1289.18 423.4 1284.91 423.4ZM1362.51 404.6C1362.51 402.467 1362.24 400.467 1361.71 398.6C1361.17 396.733 1361.44 395.267 1362.51 394.2L1365.71 395C1364.64 395.267 1362.51 395.4 1359.31 395.4C1356.37 395.133 1353.57 394.733 1350.91 394.2C1348.51 393.4 1347.17 392.733 1346.91 392.2C1347.17 387.667 1347.44 384.2 1347.71 381.8C1348.24 379.4 1348.91 377.4 1349.71 375.8C1349.71 373.4 1350.51 370.333 1352.11 366.6C1353.71 362.867 1355.04 359 1356.11 355C1357.17 350.467 1358.51 343.667 1360.11 334.6C1361.97 325.533 1364.64 316.867 1368.11 308.6C1370.24 301.667 1372.91 293 1376.11 282.6C1379.31 271.933 1382.37 263.133 1385.31 256.2C1388.51 243.933 1391.44 234.067 1394.11 226.6C1397.04 218.867 1399.97 211.933 1402.91 205.8C1406.11 199.4 1409.57 192.2 1413.31 184.2C1414.37 182.067 1415.44 179.4 1416.51 176.2C1417.57 172.733 1418.51 169.8 1419.31 167.4C1421.71 163.133 1425.04 160.467 1429.31 159.4C1433.84 158.333 1437.71 159.4 1440.91 162.6C1443.84 165.533 1446.11 168.2 1447.71 170.6C1449.31 172.733 1449.71 176.333 1448.91 181.4C1448.37 186.2 1445.84 194.2 1441.31 205.4C1439.44 208.067 1437.31 212.6 1434.91 219C1432.77 225.133 1430.77 230.6 1428.91 235.4C1424.91 244.733 1421.71 252.733 1419.31 259.4C1416.91 266.067 1414.64 272.867 1412.51 279.8C1410.64 287.267 1408.24 294.6 1405.31 301.8C1402.37 308.733 1399.57 316.333 1396.91 324.6L1390.51 326.6C1392.37 324.2 1394.64 321.4 1397.31 318.2C1400.24 315 1402.91 312.067 1405.31 309.4C1407.97 306.733 1409.71 305 1410.51 304.2C1417.71 298.067 1425.71 292.733 1434.51 288.2C1443.31 283.667 1451.57 280.467 1459.31 278.6C1467.31 276.467 1473.31 276.2 1477.31 277.8C1482.11 279.4 1486.77 282.867 1491.31 288.2C1495.84 293.267 1498.91 299.667 1500.51 307.4C1502.64 311.667 1502.37 317.267 1499.71 324.2C1497.31 331.133 1493.57 339.267 1488.51 348.6C1483.97 356.867 1478.77 364.867 1472.91 372.6C1467.04 380.067 1461.44 386.333 1456.11 391.4C1454.24 392.467 1451.84 394.333 1448.91 397C1446.24 399.4 1443.84 401.8 1441.71 404.2C1436.11 409.267 1429.17 413 1420.91 415.4C1412.91 417.533 1404.77 418.6 1396.51 418.6C1388.24 418.333 1380.91 417 1374.51 414.6C1368.37 412.2 1364.37 408.867 1362.51 404.6ZM1374.51 387.8C1375.84 388.067 1377.17 388.333 1378.51 388.6C1379.84 388.6 1381.31 388.6 1382.91 388.6C1388.77 387.8 1393.44 387.533 1396.91 387.8C1400.64 387.8 1404.24 387.4 1407.71 386.6C1411.44 385.8 1415.71 383.933 1420.51 381C1427.44 375.667 1433.17 369.933 1437.71 363.8C1442.51 357.667 1447.44 351.4 1452.51 345C1457.04 339.133 1460.64 333.267 1463.31 327.4C1465.97 321.267 1467.31 315.933 1467.31 311.4C1467.31 309 1466.64 307.8 1465.31 307.8C1464.77 307.8 1462.37 308.6 1458.11 310.2C1453.84 311.533 1449.44 313.267 1444.91 315.4C1440.64 317.267 1437.84 318.867 1436.51 320.2C1436.51 321.267 1435.71 322.2 1434.11 323C1432.51 323.533 1431.71 323.8 1431.71 323.8C1423.44 329.933 1417.31 334.733 1413.31 338.2C1409.57 341.4 1406.11 345 1402.91 349C1401.04 351.667 1399.57 353.667 1398.51 355C1397.44 356.067 1396.51 357.133 1395.71 358.2C1394.91 359 1393.71 360.6 1392.11 363C1390.51 365.4 1388.11 369.133 1384.91 374.2C1383.04 377.667 1381.17 381 1379.31 384.2C1377.44 387.4 1375.84 389.267 1374.51 389.8V387.8ZM1556.64 421.8C1551.04 422.867 1546.77 422.6 1543.84 421C1541.17 419.133 1538.37 416.867 1535.44 414.2C1531.17 412.067 1527.31 409.133 1523.84 405.4C1520.37 401.4 1517.71 397.267 1515.84 393C1513.97 388.733 1513.17 385.4 1513.44 383C1514.24 373.667 1516.37 363.533 1519.84 352.6C1523.57 341.667 1528.24 331 1533.84 320.6C1539.71 310.2 1546.24 301 1553.44 293C1560.91 284.733 1568.91 278.733 1577.44 275C1582.77 272.867 1588.51 272.067 1594.64 272.6C1600.77 273.133 1604.91 275.667 1607.04 280.2C1611.04 287.933 1610.11 292.867 1604.24 295C1603.44 295 1602.51 295.4 1601.44 296.2C1600.37 296.733 1599.84 297.533 1599.84 298.6C1600.91 299.133 1603.84 299.267 1608.64 299C1613.44 298.467 1618.24 297.667 1623.04 296.6C1628.11 295.267 1631.44 293.933 1633.04 292.6C1634.64 291.8 1635.84 291.4 1636.64 291.4C1637.44 291.4 1639.44 291.667 1642.64 292.2C1647.17 293.533 1649.44 295.133 1649.44 297C1649.44 298.067 1649.84 299.8 1650.64 302.2C1651.44 304.333 1652.37 305.4 1653.44 305.4C1655.31 305.667 1655.71 307.533 1654.64 311C1653.84 314.467 1650.77 318.067 1645.44 321.8C1640.37 325 1637.17 327.133 1635.84 328.2C1634.77 329 1634.64 330.867 1635.44 333.8C1637.57 338.867 1637.44 345 1635.04 352.2C1632.64 359.4 1628.64 366.867 1623.04 374.6C1617.44 382.333 1610.77 389.667 1603.04 396.6C1595.57 403.267 1587.71 409 1579.44 413.8C1571.44 418.333 1563.84 421 1556.64 421.8ZM1557.84 388.2C1558.91 388.2 1560.77 387.667 1563.44 386.6C1566.11 385.267 1568.24 384.2 1569.84 383.4C1570.91 382.333 1572.24 381.133 1573.84 379.8C1575.71 378.2 1577.17 377.267 1578.24 377C1579.31 377 1579.97 376.6 1580.24 375.8C1580.51 374.733 1581.44 372.733 1583.04 369.8C1584.64 366.6 1587.84 361.933 1592.64 355.8C1597.97 349.933 1601.44 345.267 1603.04 341.8C1604.64 338.067 1604.77 334.067 1603.44 329.8C1603.17 328.733 1602.37 328.067 1601.04 327.8C1599.97 327.533 1598.51 326.867 1596.64 325.8C1593.97 325.8 1592.11 326.467 1591.04 327.8C1590.24 328.867 1588.37 328.2 1585.44 325.8L1579.04 317.8L1572.24 324.6C1567.97 328.867 1564.11 334.2 1560.64 340.6C1557.44 347 1554.91 353.533 1553.04 360.2C1551.17 366.867 1549.97 372.733 1549.44 377.8C1549.17 381.8 1549.84 384.467 1551.44 385.8C1553.04 387.133 1555.17 387.933 1557.84 388.2ZM1680.36 429.4C1675.3 430.733 1670.76 429.267 1666.76 425C1662.76 421 1659.96 415 1658.36 407C1656.76 399 1657.03 390.067 1659.16 380.2C1660.5 377 1661.56 373.933 1662.36 371C1663.16 367.8 1663.56 365.267 1663.56 363.4C1664.1 360.733 1665.16 356.867 1666.76 351.8C1668.36 346.467 1670.1 341 1671.96 335.4C1673.83 329.8 1675.56 324.867 1677.16 320.6C1679.03 316.067 1680.23 313.267 1680.76 312.2C1681.83 312.2 1682.76 311.267 1683.56 309.4C1684.36 307.533 1684.76 305.667 1684.76 303.8C1684.76 301.667 1685.16 299.267 1685.96 296.6C1687.03 293.933 1688.1 292.067 1689.16 291C1689.16 289.667 1689.43 288.2 1689.96 286.6C1690.76 284.733 1691.16 283.267 1691.16 282.2C1691.16 281.133 1691.43 280.067 1691.96 279C1692.76 277.933 1693.16 276.867 1693.16 275.8C1695.03 272.333 1697.43 266.867 1700.36 259.4C1703.56 251.667 1706.9 243.133 1710.36 233.8C1714.1 224.467 1717.56 215.267 1720.76 206.2C1723.96 197.133 1726.5 189.533 1728.36 183.4C1730.5 177 1731.56 173.133 1731.56 171.8C1731.56 169.667 1732.36 167.667 1733.96 165.8C1735.56 163.933 1737.43 163 1739.56 163C1740.36 162.2 1742.23 161.667 1745.16 161.4C1748.1 160.867 1750.1 160.6 1751.16 160.6C1751.16 160.6 1751.7 161.133 1752.76 162.2C1753.83 163.267 1755.43 164.867 1757.56 167C1759.7 168.867 1761.7 171 1763.56 173.4C1765.7 175.8 1766.76 178.6 1766.76 181.8C1766.76 185.267 1766.23 188.6 1765.16 191.8C1764.36 195 1762.76 199.4 1760.36 205C1757.96 210.333 1754.23 218.333 1749.16 229C1747.03 234.333 1744.76 239.4 1742.36 244.2C1739.96 248.733 1738.76 251.533 1738.76 252.6C1738.76 253.667 1738.23 255.267 1737.16 257.4C1736.36 259.533 1735.43 262.2 1734.36 265.4C1733.3 267.533 1731.83 270.733 1729.96 275C1728.1 279 1726.1 283.4 1723.96 288.2C1722.1 292.733 1720.5 296.733 1719.16 300.2C1717.83 303.4 1717.16 305.267 1717.16 305.8C1717.16 306.867 1717.03 307.933 1716.76 309C1716.76 310.067 1716.23 311.133 1715.16 312.2C1714.1 312.2 1713.43 313 1713.16 314.6C1713.16 315.933 1713.16 316.6 1713.16 316.6C1713.16 319.267 1711.03 326.333 1706.76 337.8C1702.5 352.467 1698.5 365.933 1694.76 378.2C1691.3 390.467 1689.56 400.333 1689.56 407.8C1689.56 414.2 1688.5 419.133 1686.36 422.6C1684.5 426.067 1682.5 428.333 1680.36 429.4ZM1745.06 415.4C1742.39 413.8 1739.46 411.533 1736.26 408.6C1733.06 405.4 1731.46 402.333 1731.46 399.4C1731.46 395.4 1731.99 390.467 1733.06 384.6C1734.12 378.467 1735.19 373.267 1736.26 369C1736.79 364.2 1737.46 359.4 1738.26 354.6C1739.32 349.533 1741.19 344.867 1743.86 340.6C1746.79 330.467 1749.86 320.467 1753.06 310.6C1756.26 300.467 1759.06 290.067 1761.46 279.4C1764.92 269.533 1767.99 260.867 1770.66 253.4C1773.59 245.667 1777.19 235.933 1781.46 224.2C1783.86 217.533 1785.86 210.467 1787.46 203C1789.32 195.267 1792.12 188.333 1795.86 182.2C1797.46 179.8 1798.66 177.8 1799.46 176.2C1800.52 174.333 1801.59 172.6 1802.66 171C1802.92 169.933 1804.26 169 1806.66 168.2C1809.32 167.4 1811.99 167 1814.66 167C1817.59 166.733 1819.59 167.267 1820.66 168.6C1821.46 168.333 1822.79 169.4 1824.66 171.8C1826.52 173.933 1828.26 176.467 1829.86 179.4C1831.72 182.067 1832.52 184.2 1832.26 185.8C1832.26 186.867 1831.99 188.333 1831.46 190.2C1831.19 192.067 1830.52 193.8 1829.46 195.4C1828.39 196.467 1827.32 198.067 1826.26 200.2C1825.46 202.067 1824.12 204.733 1822.26 208.2C1821.19 211.667 1820.26 215.267 1819.46 219C1818.66 222.467 1817.59 225.667 1816.26 228.6C1815.19 231.8 1813.86 234.867 1812.26 237.8C1810.92 240.733 1809.99 243.133 1809.46 245C1807.59 251.133 1805.32 257.133 1802.66 263C1800.26 268.867 1798.12 275.133 1796.26 281.8C1794.39 288.2 1792.52 294.867 1790.66 301.8C1788.79 308.467 1786.12 314.867 1782.66 321C1780.79 323.933 1779.46 327.667 1778.66 332.2C1777.86 336.733 1777.06 341.267 1776.26 345.8C1774.66 350.6 1773.19 355.133 1771.86 359.4C1770.79 363.4 1770.26 365.933 1770.26 367C1768.66 372.867 1767.46 378.733 1766.66 384.6C1766.12 390.2 1764.79 395.133 1762.66 399.4C1762.39 402.067 1761.46 405 1759.86 408.2C1758.26 411.4 1756.12 413.8 1753.46 415.4C1751.06 417 1748.26 417 1745.06 415.4ZM1832.55 421.4C1822.15 417.133 1814.95 410.2 1810.95 400.6C1806.95 391 1805.88 378.2 1807.75 362.2C1808.28 353.933 1808.02 348.467 1806.95 345.8C1805.88 342.867 1803.88 340.067 1800.95 337.4C1800.15 336.333 1798.28 334.6 1795.35 332.2C1792.42 329.533 1791.08 327.533 1791.35 326.2C1791.08 324.333 1791.48 322.067 1792.55 319.4C1793.62 316.467 1794.55 314.867 1795.35 314.6C1797.22 313.8 1799.08 312.867 1800.95 311.8C1803.08 310.733 1804.68 310.467 1805.75 311C1806.82 311 1808.42 311.667 1810.55 313C1812.95 314.333 1814.15 315.533 1814.15 316.6C1815.22 318.467 1816.82 317.667 1818.95 314.2C1821.35 310.733 1823.88 306.333 1826.55 301C1829.22 296.733 1832.55 292.733 1836.55 289C1840.55 285.267 1844.55 281.933 1848.55 279C1852.82 275.8 1856.42 273.4 1859.35 271.8C1860.68 271.267 1863.22 270.467 1866.95 269.4C1870.95 268.333 1875.08 267.533 1879.35 267C1883.62 266.2 1886.82 265.933 1888.95 266.2C1893.75 266.467 1898.82 268.467 1904.15 272.2C1909.48 275.933 1913.62 279.4 1916.55 282.6C1920.02 285 1922.28 288.733 1923.35 293.8C1924.68 298.6 1925.22 303.667 1924.95 309C1924.68 314.333 1923.62 318.867 1921.75 322.6C1920.95 325.267 1918.15 329 1913.35 333.8C1908.55 338.6 1903.22 343.267 1897.35 347.8C1891.75 352.067 1886.95 355 1882.95 356.6C1879.48 357.4 1875.35 358.067 1870.55 358.6C1865.75 358.867 1861.22 358.867 1856.95 358.6C1852.95 358.067 1850.15 357.4 1848.55 356.6C1846.68 355.533 1845.08 355.933 1843.75 357.8C1842.68 359.4 1841.75 363.933 1840.95 371.4C1840.68 374.333 1840.68 376.867 1840.95 379C1841.48 381.133 1842.02 382.733 1842.55 383.8C1844.42 387 1846.28 389.4 1848.15 391C1850.02 392.333 1853.48 392.733 1858.55 392.2C1863.62 391.667 1868.68 388.6 1873.75 383C1879.08 377.133 1883.88 372.467 1888.15 369C1889.22 367.133 1891.48 365.933 1894.95 365.4C1898.68 364.6 1903.08 364.867 1908.15 366.2C1911.08 368.067 1912.42 371 1912.15 375C1912.15 379 1910.02 384.867 1905.75 392.6C1904.95 394.467 1902.68 397.267 1898.95 401C1895.48 404.467 1891.62 408.067 1887.35 411.8C1883.35 415.267 1880.02 417.8 1877.35 419.4C1869.35 423.667 1861.48 425.667 1853.75 425.4C1846.02 425.133 1838.95 423.8 1832.55 421.4ZM1862.15 331.4C1866.15 330.333 1869.48 329.267 1872.15 328.2C1875.08 327.133 1877.88 325.4 1880.55 323C1883.22 320.6 1886.28 317 1889.75 312.2C1890.82 309.267 1891.35 306.733 1891.35 304.6C1891.62 302.467 1891.48 301.133 1890.95 300.6C1888.82 298.467 1886.42 297.8 1883.75 298.6C1881.35 299.133 1878.68 300.467 1875.75 302.6C1873.88 303.4 1871.22 305.133 1867.75 307.8C1864.55 310.2 1861.35 313 1858.15 316.2C1855.22 319.133 1852.82 321.933 1850.95 324.6C1849.35 327 1849.08 328.467 1850.15 329C1849.62 330.067 1851.08 330.733 1854.55 331C1858.28 331.267 1860.82 331.4 1862.15 331.4ZM1960.14 411.4C1959.08 411.4 1956.54 410.467 1952.54 408.6C1948.54 406.467 1946.01 404.867 1944.94 403.8C1943.08 401.667 1941.88 399.4 1941.34 397C1940.81 394.333 1940.54 389.267 1940.54 381.8C1940.54 373.267 1942.28 363.667 1945.74 353C1949.21 342.067 1955.08 327.533 1963.34 309.4L1979.74 276.2C1981.08 274.333 1982.28 272.733 1983.34 271.4C1984.41 269.8 1985.61 268.333 1986.94 267C1987.48 267 1988.14 267 1988.94 267C1990.01 267 1990.81 267.133 1991.34 267.4C1993.74 267.667 1997.48 269.133 2002.54 271.8C2007.88 274.467 2011.08 278.467 2012.14 283.8C2012.14 287.267 2011.61 291.4 2010.54 296.2C2009.48 300.733 2006.28 306.733 2000.94 314.2C1998.81 316.867 1996.68 320.733 1994.54 325.8C1992.68 330.867 1990.94 335.667 1989.34 340.2C1989.08 340.733 1988.28 342.067 1986.94 344.2C1985.88 346.067 1984.81 348.067 1983.74 350.2C1982.68 352.067 1982.14 353.267 1982.14 353.8L1980.54 357.4L1997.74 340.6C2009.74 328.6 2019.88 320.067 2028.14 315C2036.41 309.933 2043.34 307.8 2048.94 308.6C2054.81 309.4 2059.48 312.733 2062.94 318.6C2064.81 321.267 2066.14 324.2 2066.94 327.4C2067.74 330.333 2068.28 333.8 2068.54 337.8C2068.81 341.8 2068.68 346.867 2068.14 353V375.8C2073.21 374.467 2077.08 373.4 2079.74 372.6C2082.41 371.533 2085.08 370.6 2087.74 369.8C2089.88 369.267 2092.01 368.733 2094.14 368.2C2096.54 367.667 2099.48 367.267 2102.94 367C2102.68 370.467 2101.21 374.733 2098.54 379.8C2095.88 384.867 2092.54 389.933 2088.54 395C2084.81 400.067 2080.68 404.333 2076.14 407.8C2071.88 411.267 2067.88 413 2064.14 413C2060.68 413 2056.68 411.933 2052.14 409.8C2047.61 407.4 2043.74 402.867 2040.54 396.2C2039.48 392.733 2038.41 388.733 2037.34 384.2C2036.28 379.667 2035.74 374.867 2035.74 369.8V352.2C2035.74 350.6 2035.61 349.533 2035.34 349C2035.34 348.2 2035.21 347.8 2034.94 347.8C2033.88 347.8 2030.41 350.6 2024.54 356.2C2018.94 361.8 2013.21 367.667 2007.34 373.8C1995.08 386.6 1984.81 396.067 1976.54 402.2C1968.54 408.333 1963.08 411.4 1960.14 411.4Z" fill="#333333"/>
</g>
<defs>
<clipPath id="clip0_22_171">
<rect width="2180" height="574" fill="white"/>
</clipPath>
</defs>
</svg>
