<svg width="1000" height="1000" viewBox="0 0 1000 1000" fill="none" xmlns="http://www.w3.org/2000/svg">
<circle cx="494" cy="367" r="250" fill="#96BBAE"/>
<path d="M247 400C331.86 347.594 383.539 323.316 477.938 291.504C565.519 261.989 709.012 240.035 709.012 240.035" stroke="#333333"/>
<path d="M250 424C335.542 368.544 387.884 343.254 483.905 310.988C572.991 281.051 719.809 261.335 719.809 261.335" stroke="#333333"/>
<path d="M256.238 446.687C342.186 390.502 394.821 364.948 491.451 332.493C581.101 302.382 729 283 729 283" stroke="#333333"/>
<path d="M263.131 464.378C349.15 408.973 401.75 383.654 498.188 351.235C587.661 321.157 735 301 735 301" stroke="#333333"/>
<path d="M271.824 480.753C356.926 425.719 408.986 400.603 504.467 368.513C593.052 338.74 739 319 739 319" stroke="#333333"/>
<path d="M281.041 497.119C364.82 441.469 416.21 416.287 510.691 384.584C598.347 355.171 743.242 337.088 743.242 337.088" stroke="#333333"/>
<path d="M389.156 139.767C464.453 125.86 483.25 147.015 504.396 176.178C525.542 205.34 556.714 270.388 556.714 270.388" stroke="#333333"/>
<path d="M663.944 550.471C577.426 565.565 556.108 541.088 532.187 507.401C508.267 473.713 473.253 398.754 473.253 398.754" stroke="#333333"/>
<path d="M380 146C447.732 136.189 465.653 156.594 486.033 184.526C506.413 212.458 537.364 274.105 537.364 274.105" stroke="#333333"/>
<path d="M673.875 540.667C595.632 551.209 575.193 527.466 552.004 495.013C528.814 462.56 493.816 391.095 493.816 391.095" stroke="#333333"/>
<path d="M364 154.11C427.429 146.277 444.719 166.076 464.487 193.087C484.254 220.097 514.7 279.4 514.7 279.4" stroke="#333333"/>
<path d="M685.163 528.28C612.789 536.49 593.308 513.732 571.085 482.726C548.862 451.72 514.836 383.793 514.836 383.793" stroke="#333333"/>
<path d="M348.368 164.492C409.183 157.341 425.896 176.507 445.031 202.631C464.165 228.755 493.744 286.032 493.744 286.032" stroke="#333333"/>
<path d="M695.607 513.918C628.33 521.154 610.073 499.792 589.217 470.717C568.36 441.641 536.304 378.028 536.304 378.028" stroke="#333333"/>
<path d="M332.791 177.384C391.192 170.172 407.112 188.401 425.313 213.271C443.514 238.14 471.546 292.742 471.546 292.742" stroke="#333333"/>
<path d="M706.889 498.775C643.555 505.96 626.507 486.043 607.06 458.91C587.613 431.777 557.836 372.334 557.836 372.334" stroke="#333333"/>
<path d="M318.071 190.5C373.53 183.979 388.77 201.457 406.219 225.28C423.668 249.103 450.641 301.334 450.641 301.334" stroke="#333333"/>
<path d="M716.274 482.481C658.875 488.654 643.298 470.429 625.503 445.622C607.709 420.816 580.359 366.542 580.359 366.542" stroke="#333333"/>
<path d="M305.248 202.472C357.612 196.457 372.055 213.032 388.601 235.615C405.148 258.198 430.769 307.679 430.769 307.679" stroke="#333333"/>
<path d="M723.099 467.586C670.779 473.213 656.581 456.6 640.361 433.989C624.142 411.377 599.213 361.907 599.213 361.907" stroke="#333333"/>
<path d="M493.801 117.125C493.801 117.125 483.3 117.48 473.878 122.715C464.455 127.95 460.148 138.901 460.148 138.901" stroke="#333333" stroke-linecap="round"/>
<path d="M469.005 118.19C469.005 118.19 460.591 118.475 453.04 122.67C445.49 126.864 442.038 135.639 442.038 135.639" stroke="#333333" stroke-linecap="round"/>
<path d="M445.659 122.041C445.659 122.041 439.306 122.256 433.607 125.423C427.907 128.589 425.301 135.214 425.301 135.214" stroke="#333333" stroke-linecap="round"/>
<path d="M421.669 127.875C421.669 127.875 417.908 128.002 414.534 129.877C411.16 131.751 409.618 135.673 409.618 135.673" stroke="#333333" stroke-linecap="round"/>
<path d="M519.379 118.358C519.379 118.358 505.891 118.814 493.79 125.538C481.688 132.261 476.155 146.326 476.155 146.326" stroke="#333333" stroke-linecap="round"/>
<path d="M548.852 123.408C548.852 123.408 531.2 124.005 515.36 132.805C499.521 141.605 492.28 160.013 492.28 160.013" stroke="#333333"/>
<path d="M573.989 130.62C573.989 130.62 552.291 131.354 532.821 142.171C513.352 152.987 504.451 175.615 504.451 175.615" stroke="#333333"/>
<path d="M597.743 139.967C597.743 139.967 572.092 140.836 549.075 153.623C526.058 166.41 515.536 193.16 515.536 193.16" stroke="#333333"/>
<path d="M618.728 151.761C618.728 151.761 589.866 152.738 563.969 167.125C538.072 181.513 526.233 211.611 526.233 211.611" stroke="#333333"/>
<path d="M636.887 162.961C636.887 162.961 605.405 164.027 577.157 179.721C548.909 195.414 535.996 228.244 535.996 228.244" stroke="#333333"/>
<path d="M655.952 177.562C655.952 177.562 621.905 178.715 591.355 195.687C560.805 212.659 546.839 248.165 546.839 248.165" stroke="#333333"/>
<path d="M688.015 209.536C688.015 209.536 640.035 214.475 619 227C597.965 239.525 585 263 585 263" stroke="#333333"/>
<path d="M312 476.912C312 476.912 397.384 456.766 428.5 437C459.616 417.234 470.995 399.771 470.995 399.771" stroke="#333333"/>
<path d="M700.425 226.207C700.425 226.207 664 227.707 644 235C624 242.293 613 257 613 257" stroke="#333333"/>
<path d="M281 497C281 497 366.013 488.705 411.544 468.892C457.076 449.079 480.222 412.955 480.222 412.955" stroke="#333333"/>
<path d="M674.49 194.394C674.49 194.394 638.112 195.625 605.471 213.759C572.829 231.893 557.907 269.829 557.907 269.829" stroke="#333333"/>
<path d="M297.219 520.498C297.219 520.498 362.651 514.25 415.5 494C468.349 473.75 488.252 432.165 488.252 432.165" stroke="#333333"/>
<path d="M312.711 539.886C312.711 539.886 376.907 533.756 428.758 513.889C480.609 494.022 500.136 453.222 500.136 453.222" stroke="#333333"/>
<path d="M334.132 558.716C334.132 558.716 394.954 552.908 444.079 534.085C493.205 515.262 511.706 476.607 511.706 476.607" stroke="#333333"/>
<path d="M357.762 576.915C357.762 576.915 414.999 571.45 461.231 553.736C507.462 536.022 524.872 499.645 524.872 499.645" stroke="#333333"/>
<path d="M382.718 591.484C382.718 591.484 436.719 586.327 480.336 569.615C523.954 552.903 540.379 518.582 540.379 518.582" stroke="#333333"/>
<path d="M415.742 604.547C415.742 604.547 465.167 599.827 505.087 584.531C545.008 569.235 560.042 537.823 560.042 537.823" stroke="#333333"/>
<path d="M447.251 612.729C447.251 612.729 493.262 608.335 530.425 594.096C567.589 579.856 581.584 550.614 581.584 550.614" stroke="#333333"/>
<path d="M488.5 616.5C488.5 616.5 510.241 618.393 546.5 604.5C582.759 590.607 606.426 555.201 606.426 555.201" stroke="#333333"/>
<path d="M567 606C567 606 605.5 586.5 614.5 577.5C623.5 568.5 629.506 556 629.506 556" stroke="#333333"/>
<path d="M628.585 577.82C628.585 577.82 637.75 569 639.5 566.5C641.25 564 648 553 648 553" stroke="#333333"/>
<path d="M428.091 309.161C428.091 309.161 365.953 272.845 337.82 251.104C315.245 233.658 296.704 212.402 296.704 212.402" stroke="#333333"/>
<path d="M398.858 320.272C398.858 320.272 343.8 288.238 318.914 268.989C298.944 253.542 282.596 234.653 282.596 234.653" stroke="#333333"/>
<path d="M374.709 330.903C374.709 330.903 325.96 302.54 303.926 285.497C286.244 271.82 271.771 255.096 271.771 255.096" stroke="#333333"/>
<path d="M349.95 342.117C349.95 342.117 308.058 317.744 289.124 303.098C273.93 291.345 261.492 276.974 261.492 276.974" stroke="#333333"/>
<path d="M324.988 355.486C324.988 355.486 290.708 335.542 275.215 323.558C262.781 313.941 252.604 302.18 252.604 302.18" stroke="#333333"/>
<path d="M295.299 369.797C295.299 369.797 271.914 356.191 261.344 348.015C252.862 341.454 245.919 333.432 245.919 333.432" stroke="#333333"/>
<path d="M270.573 385.856C270.573 385.856 258.069 378.581 252.417 374.21C247.882 370.702 244.169 366.412 244.169 366.412" stroke="#333333"/>
<path d="M407.977 267.136C407.977 267.136 365.098 242.967 345.942 228.057C330.57 216.092 318.282 201.081 318.282 201.081" stroke="#333333"/>
<path d="M629.932 355.542C629.932 355.542 622.419 367.609 617.877 372.948C614.231 377.232 609.746 380.588 609.746 380.588" stroke="#333333"/>
<path d="M657.505 350.101C657.505 350.101 643.219 373.045 634.581 383.197C627.65 391.343 619.121 397.725 619.121 397.725" stroke="#333333"/>
<path d="M683.877 346.498C683.877 346.498 663.264 379.604 650.8 394.251C640.799 406.006 628.492 415.214 628.492 415.214" stroke="#333333"/>
<path d="M716.492 340.785C716.492 340.785 688.165 386.28 671.038 406.409C657.293 422.563 640.38 435.217 640.38 435.217" stroke="#333333"/>
<path d="M743.342 344.358C743.342 344.358 710.707 396.773 690.974 419.964C675.139 438.574 655.654 453.154 655.654 453.154" stroke="#333333"/>
<path d="M744.035 380.319C744.035 380.319 718.556 421.241 703.15 439.347C690.787 453.876 675.575 465.259 675.575 465.259" stroke="#333333"/>
<path d="M736.585 427.166C736.585 427.166 724.102 447.215 716.554 456.086C710.497 463.204 703.044 468.781 703.044 468.781" stroke="#333333"/>
<path d="M75.75 880.5C71.25 877.167 67.75 872.417 65.25 866.25C62.9167 859.917 61.8333 854.083 62 848.75C61.8333 838.417 62.6667 827.75 64.5 816.75C66.5 805.75 69.0833 795.5 72.25 786C74.4167 780 76.75 773.917 79.25 767.75C81.75 761.583 84.3333 755.75 87 750.25C89.6667 744.583 92.25 739.833 94.75 736C99.9167 727.167 105.167 720.083 110.5 714.75C116 709.417 120.167 705.917 123 704.25C127.667 701.917 133.25 700.167 139.75 699C146.25 697.667 152.583 697.667 158.75 699C163.083 700.167 167.333 701.833 171.5 704C175.833 706.167 179.583 708.833 182.75 712C184.583 713.667 186 715.417 187 717.25C188 719.083 188.5 721 188.5 723C188.5 725.5 187.333 727.917 185 730.25C182.667 732.583 180.083 734.167 177.25 735C174.417 735.833 172.25 735.333 170.75 733.5C168.583 730.167 166.5 727.667 164.5 726C162.5 724.167 160.417 722.833 158.25 722C156.417 720.833 153.917 720.25 150.75 720.25C147.75 720.25 144.5 720.833 141 722C137.5 723 134.167 724.833 131 727.5C129.833 728.5 128.25 729.917 126.25 731.75C124.417 733.583 122.417 735.833 120.25 738.5C118.25 741 116.417 743.75 114.75 746.75C110.083 754.417 106.083 762.25 102.75 770.25C99.5833 778.083 96.75 786.667 94.25 796C93.0833 799.833 91.8333 804.583 90.5 810.25C89.1667 815.75 87.9167 821.25 86.75 826.75C85.75 832.25 85.0833 837.083 84.75 841.25C84.25 847.083 84.4167 851.667 85.25 855C86.0833 858.333 87.8333 860.583 90.5 861.75C93.1667 862.75 96.9167 862.667 101.75 861.5C106.083 860.5 110.417 858.833 114.75 856.5C119.25 854 123.583 850.917 127.75 847.25C131.917 843.417 135.667 838.917 139 833.75C142 828.083 144.417 822.917 146.25 818.25C148.25 813.583 149.25 809.917 149.25 807.25C149.417 804.417 148 803.083 145 803.25C138.167 803.417 132.667 803.167 128.5 802.5C124.5 801.833 121.75 800.167 120.25 797.5C118.083 797 116.917 795.167 116.75 792C116.75 788.833 118.333 786.25 121.5 784.25C124.333 782.75 128.25 781.833 133.25 781.5C138.25 781.167 143.333 781.333 148.5 782C153.833 782.5 158.083 783.667 161.25 785.5C164.917 787.333 167.417 790.083 168.75 793.75C170.25 797.25 171 801 171 805C171.167 809 170.917 812.75 170.25 816.25C168.75 822.083 166.667 827.75 164 833.25C161.5 838.75 158.083 844.333 153.75 850C151.25 853.5 147.833 857.167 143.5 861C139.167 864.833 134.583 868.25 129.75 871.25C125.083 874.417 120.667 876.917 116.5 878.75C109.833 881.75 102.833 883.917 95.5 885.25C88.3333 886.583 81.75 885 75.75 880.5ZM190.535 863.75C189.868 862.417 188.368 861.083 186.035 859.75C183.868 858.417 182.785 857.417 182.785 856.75C182.785 856.083 182.368 855.083 181.535 853.75C180.868 852.25 180.202 851.167 179.535 850.5C178.702 849.5 178.952 847.083 180.285 843.25C181.618 839.25 183.618 834.417 186.285 828.75C188.952 823.083 191.868 817.333 195.035 811.5C196.368 810.167 197.702 808.417 199.035 806.25C200.368 804.083 201.368 802.667 202.035 802C202.035 801.333 202.285 800.75 202.785 800.25C203.285 799.583 203.868 799.25 204.535 799.25L206.535 795.25C206.868 794.583 207.868 793.25 209.535 791.25C211.368 789.25 213.535 787.083 216.035 784.75C218.535 782.25 221.035 779.917 223.535 777.75C226.202 775.583 228.368 774 230.035 773C233.535 770.667 237.118 769.583 240.785 769.75C244.618 769.917 247.868 771.083 250.535 773.25C251.035 773.75 252.118 774.75 253.785 776.25C255.618 777.75 257.618 779.417 259.785 781.25C262.118 783.083 264.118 784.75 265.785 786.25L275.035 794.5L270.785 807C268.618 813.667 268.035 819.5 269.035 824.5C270.035 829.5 271.618 833.833 273.785 837.5C274.618 839.333 275.702 840.75 277.035 841.75C278.535 842.75 280.452 843.417 282.785 843.75C284.118 843.917 285.368 844.417 286.535 845.25C287.702 846.083 288.285 847.417 288.285 849.25C288.285 853.25 287.535 856.167 286.035 858C284.702 859.667 283.202 860.667 281.535 861C276.035 861.667 270.785 861.083 265.785 859.25C260.785 857.417 256.285 852.667 252.285 845C251.618 844 250.702 842.167 249.535 839.5C248.535 836.667 247.952 834.833 247.785 834C247.118 834.833 246.202 835.917 245.035 837.25C244.035 838.417 243.035 839.5 242.035 840.5C230.202 852.5 220.035 860.333 211.535 864C203.202 867.5 196.202 867.417 190.535 863.75ZM204.285 843C205.452 843.167 207.285 842.583 209.785 841.25C212.285 839.75 215.618 837.333 219.785 834C225.452 829.167 230.118 825.167 233.785 822C237.452 818.833 241.035 814.75 244.535 809.75L250.035 800.75C248.368 796.917 246.868 794.417 245.535 793.25C244.202 792.083 242.868 791.5 241.535 791.5C239.368 791.5 236.785 792.917 233.785 795.75C230.785 798.417 227.368 802.417 223.535 807.75C219.868 812.917 215.702 819.417 211.035 827.25C208.868 830.917 207.202 834.5 206.035 838C204.868 841.333 204.285 843 204.285 843ZM300.857 862.25C299.357 861.083 297.691 859.583 295.857 857.75C294.191 855.917 293.607 853.333 294.107 850C294.607 845.333 295.274 841.25 296.107 837.75C296.941 834.083 297.941 829.917 299.107 825.25C299.441 823.25 300.274 819.833 301.607 815C303.107 810.167 304.857 804.917 306.857 799.25C308.857 793.583 310.941 788.25 313.107 783.25C315.274 778.083 317.191 774.25 318.857 771.75C320.691 770.083 323.357 769.25 326.857 769.25C330.524 769.25 333.024 769.917 334.357 771.25C336.191 772.75 336.774 775.417 336.107 779.25C335.441 782.917 333.107 788.667 329.107 796.5C328.274 798.5 327.191 800.667 325.857 803C324.691 805.167 323.857 807 323.357 808.5C322.857 809.833 323.024 810.417 323.857 810.25C324.857 808.417 326.691 806.333 329.357 804C332.024 801.5 334.857 799.083 337.857 796.75C340.857 794.417 343.691 792.333 346.357 790.5C349.024 788.667 350.857 787.5 351.857 787C353.191 786.167 354.691 785.5 356.357 785C358.191 784.333 359.441 783.833 360.107 783.5C363.941 781.667 368.107 781 372.607 781.5C377.274 781.833 380.107 783.25 381.107 785.75C381.274 787.083 381.774 788.083 382.607 788.75C383.607 789.417 384.107 789.75 384.107 789.75C384.774 789.75 385.107 790 385.107 790.5C385.274 791 385.357 791.25 385.357 791.25C385.357 792.417 384.191 794.083 381.857 796.25C379.691 798.417 377.274 799.583 374.607 799.75C372.441 799.917 370.524 800.333 368.857 801C367.191 801.667 365.191 802.5 362.857 803.5C356.524 807.167 350.774 810.417 345.607 813.25C340.607 816.083 335.441 820.417 330.107 826.25C328.941 827.583 327.691 828.833 326.357 830C325.024 831.167 323.691 832.833 322.357 835C321.524 835.833 320.691 837.667 319.857 840.5C319.024 843.333 318.274 846.083 317.607 848.75C317.107 851.25 316.857 852.75 316.857 853.25C316.857 853.25 316.607 854.083 316.107 855.75C315.607 857.25 314.774 858.75 313.607 860.25C311.607 862.917 309.607 864.583 307.607 865.25C305.774 865.917 303.524 864.917 300.857 862.25ZM465.945 868C463.445 868 461.029 867.25 458.695 865.75C456.362 864.083 454.445 861.833 452.945 859C451.445 856 450.695 852.5 450.695 848.5C450.695 846 451.112 842.5 451.945 838C452.945 833.333 454.362 827.5 456.195 820.5C456.529 818.167 456.779 816.667 456.945 816C457.279 815.333 457.445 814.667 457.445 814C457.445 813.667 457.362 813.417 457.195 813.25C457.195 812.917 457.029 812.75 456.695 812.75C455.362 812.75 453.529 813.667 451.195 815.5C449.029 817.167 446.529 819.167 443.695 821.5C443.195 821.833 442.612 822.25 441.945 822.75C441.445 823.25 440.862 823.75 440.195 824.25C439.695 824.75 439.112 825.25 438.445 825.75C436.779 826.75 434.195 828.667 430.695 831.5C427.362 834.333 423.862 837.333 420.195 840.5C416.695 843.667 413.612 846.333 410.945 848.5C409.612 849.5 408.445 850.333 407.445 851C406.612 851.667 406.029 852 405.695 852C405.362 852 404.029 851.583 401.695 850.75C399.529 849.75 397.362 848.417 395.195 846.75C393.195 844.917 392.195 842.833 392.195 840.5C392.195 839 392.779 836 393.945 831.5C395.279 827 397.112 821.667 399.445 815.5C401.779 809.333 404.445 803.083 407.445 796.75C408.112 795.25 408.612 793.25 408.945 790.75C409.279 788.25 409.612 785.833 409.945 783.5C410.445 781 411.279 779.167 412.445 778C412.945 777.167 413.529 776.583 414.195 776.25C415.029 775.75 415.862 775.5 416.695 775.5C418.362 775.5 419.945 775.917 421.445 776.75C422.945 777.417 424.362 778.583 425.695 780.25C428.195 782.917 429.529 786.083 429.695 789.75C430.029 793.25 429.779 796.667 428.945 800C428.112 803.333 427.195 806.083 426.195 808.25C425.195 810.25 424.695 811.083 424.695 810.75C425.362 810.417 426.279 809.583 427.445 808.25C428.779 806.917 431.029 805.333 434.195 803.5C438.529 800.167 441.862 797.833 444.195 796.5C446.529 795 448.279 793.917 449.445 793.25C450.779 792.583 451.945 791.833 452.945 791C453.779 790.333 454.362 789.917 454.695 789.75C455.195 789.583 455.445 789.5 455.445 789.5C455.945 789.5 456.779 789.167 457.945 788.5C459.279 787.833 460.529 787.5 461.695 787.5C463.362 787.5 465.112 787.917 466.945 788.75C468.779 789.417 470.362 790.417 471.695 791.75C473.029 792.917 473.695 794.167 473.695 795.5C473.695 796 473.862 796.417 474.195 796.75C474.529 797.083 474.862 797.5 475.195 798C476.029 799 476.945 800.417 477.945 802.25C479.112 803.917 479.695 806.667 479.695 810.5C479.695 813.167 479.112 817.083 477.945 822.25C476.779 827.417 475.529 832.5 474.195 837.5C472.862 842.667 472.195 846.833 472.195 850C472.362 853 472.695 855.333 473.195 857C473.695 858.5 473.945 859.75 473.945 860.75C473.945 862.083 473.279 863.667 471.945 865.5C470.612 867.167 468.612 868 465.945 868ZM514.441 856.25C514.441 854.917 514.275 853.667 513.941 852.5C513.608 851.333 513.775 850.417 514.441 849.75L516.441 850.25C515.775 850.417 514.441 850.5 512.441 850.5C510.608 850.333 508.858 850.083 507.191 849.75C505.691 849.25 504.858 848.833 504.691 848.5C504.858 845.667 505.025 843.5 505.191 842C505.525 840.5 505.941 839.25 506.441 838.25C506.441 836.75 506.941 834.833 507.941 832.5C508.941 830.167 509.775 827.75 510.441 825.25C511.108 822.417 511.941 818.167 512.941 812.5C514.108 806.833 515.775 801.417 517.941 796.25C519.275 791.917 520.941 786.5 522.941 780C524.941 773.333 526.858 767.833 528.691 763.5C530.691 755.833 532.525 749.667 534.191 745C536.025 740.167 537.858 735.833 539.691 732C541.691 728 543.858 723.5 546.191 718.5C546.858 717.167 547.525 715.5 548.191 713.5C548.858 711.333 549.441 709.5 549.941 708C551.441 705.333 553.525 703.667 556.191 703C559.025 702.333 561.441 703 563.441 705C565.275 706.833 566.691 708.5 567.691 710C568.691 711.333 568.941 713.583 568.441 716.75C568.108 719.75 566.525 724.75 563.691 731.75C562.525 733.417 561.191 736.25 559.691 740.25C558.358 744.083 557.108 747.5 555.941 750.5C553.441 756.333 551.441 761.333 549.941 765.5C548.441 769.667 547.025 773.917 545.691 778.25C544.525 782.917 543.025 787.5 541.191 792C539.358 796.333 537.608 801.083 535.941 806.25L531.941 807.5C533.108 806 534.525 804.25 536.191 802.25C538.025 800.25 539.691 798.417 541.191 796.75C542.858 795.083 543.941 794 544.441 793.5C548.941 789.667 553.941 786.333 559.441 783.5C564.941 780.667 570.108 778.667 574.941 777.5C579.941 776.167 583.691 776 586.191 777C589.191 778 592.108 780.167 594.941 783.5C597.775 786.667 599.691 790.667 600.691 795.5C602.025 798.167 601.858 801.667 600.191 806C598.691 810.333 596.358 815.417 593.191 821.25C590.358 826.417 587.108 831.417 583.441 836.25C579.775 840.917 576.275 844.833 572.941 848C571.775 848.667 570.275 849.833 568.441 851.5C566.775 853 565.275 854.5 563.941 856C560.441 859.167 556.108 861.5 550.941 863C545.941 864.333 540.858 865 535.691 865C530.525 864.833 525.941 864 521.941 862.5C518.108 861 515.608 858.917 514.441 856.25ZM521.941 845.75C522.775 845.917 523.608 846.083 524.441 846.25C525.275 846.25 526.191 846.25 527.191 846.25C530.858 845.75 533.775 845.583 535.941 845.75C538.275 845.75 540.525 845.5 542.691 845C545.025 844.5 547.691 843.333 550.691 841.5C555.025 838.167 558.608 834.583 561.441 830.75C564.441 826.917 567.525 823 570.691 819C573.525 815.333 575.775 811.667 577.441 808C579.108 804.167 579.941 800.833 579.941 798C579.941 796.5 579.525 795.75 578.691 795.75C578.358 795.75 576.858 796.25 574.191 797.25C571.525 798.083 568.775 799.167 565.941 800.5C563.275 801.667 561.525 802.667 560.691 803.5C560.691 804.167 560.191 804.75 559.191 805.25C558.191 805.583 557.691 805.75 557.691 805.75C552.525 809.583 548.691 812.583 546.191 814.75C543.858 816.75 541.691 819 539.691 821.5C538.525 823.167 537.608 824.417 536.941 825.25C536.275 825.917 535.691 826.583 535.191 827.25C534.691 827.75 533.941 828.75 532.941 830.25C531.941 831.75 530.441 834.083 528.441 837.25C527.275 839.417 526.108 841.5 524.941 843.5C523.775 845.5 522.775 846.667 521.941 847V845.75ZM635.775 867C632.275 867.667 629.609 867.5 627.775 866.5C626.109 865.333 624.359 863.917 622.525 862.25C619.859 860.917 617.442 859.083 615.275 856.75C613.109 854.25 611.442 851.667 610.275 849C609.109 846.333 608.609 844.25 608.775 842.75C609.275 836.917 610.609 830.583 612.775 823.75C615.109 816.917 618.025 810.25 621.525 803.75C625.192 797.25 629.275 791.5 633.775 786.5C638.442 781.333 643.442 777.583 648.775 775.25C652.109 773.917 655.692 773.417 659.525 773.75C663.359 774.083 665.942 775.667 667.275 778.5C669.775 783.333 669.192 786.417 665.525 787.75C665.025 787.75 664.442 788 663.775 788.5C663.109 788.833 662.775 789.333 662.775 790C663.442 790.333 665.275 790.417 668.275 790.25C671.275 789.917 674.275 789.417 677.275 788.75C680.442 787.917 682.525 787.083 683.525 786.25C684.525 785.75 685.275 785.5 685.775 785.5C686.275 785.5 687.525 785.667 689.525 786C692.359 786.833 693.775 787.833 693.775 789C693.775 789.667 694.025 790.75 694.525 792.25C695.025 793.583 695.609 794.25 696.275 794.25C697.442 794.417 697.692 795.583 697.025 797.75C696.525 799.917 694.609 802.167 691.275 804.5C688.109 806.5 686.109 807.833 685.275 808.5C684.609 809 684.525 810.167 685.025 812C686.359 815.167 686.275 819 684.775 823.5C683.275 828 680.775 832.667 677.275 837.5C673.775 842.333 669.609 846.917 664.775 851.25C660.109 855.417 655.192 859 650.025 862C645.025 864.833 640.275 866.5 635.775 867ZM636.525 846C637.192 846 638.359 845.667 640.025 845C641.692 844.167 643.025 843.5 644.025 843C644.692 842.333 645.525 841.583 646.525 840.75C647.692 839.75 648.609 839.167 649.275 839C649.942 839 650.359 838.75 650.525 838.25C650.692 837.583 651.275 836.333 652.275 834.5C653.275 832.5 655.275 829.583 658.275 825.75C661.609 822.083 663.775 819.167 664.775 817C665.775 814.667 665.859 812.167 665.025 809.5C664.859 808.833 664.359 808.417 663.525 808.25C662.859 808.083 661.942 807.667 660.775 807C659.109 807 657.942 807.417 657.275 808.25C656.775 808.917 655.609 808.5 653.775 807L649.775 802L645.525 806.25C642.859 808.917 640.442 812.25 638.275 816.25C636.275 820.25 634.692 824.333 633.525 828.5C632.359 832.667 631.609 836.333 631.275 839.5C631.109 842 631.525 843.667 632.525 844.5C633.525 845.333 634.859 845.833 636.525 846ZM713.102 871.75C709.935 872.583 707.102 871.667 704.602 869C702.102 866.5 700.352 862.75 699.352 857.75C698.352 852.75 698.518 847.167 699.852 841C700.685 839 701.352 837.083 701.852 835.25C702.352 833.25 702.602 831.667 702.602 830.5C702.935 828.833 703.602 826.417 704.602 823.25C705.602 819.917 706.685 816.5 707.852 813C709.018 809.5 710.102 806.417 711.102 803.75C712.268 800.917 713.018 799.167 713.352 798.5C714.018 798.5 714.602 797.917 715.102 796.75C715.602 795.583 715.852 794.417 715.852 793.25C715.852 791.917 716.102 790.417 716.602 788.75C717.268 787.083 717.935 785.917 718.602 785.25C718.602 784.417 718.768 783.5 719.102 782.5C719.602 781.333 719.852 780.417 719.852 779.75C719.852 779.083 720.018 778.417 720.352 777.75C720.852 777.083 721.102 776.417 721.102 775.75C722.268 773.583 723.768 770.167 725.602 765.5C727.602 760.667 729.685 755.333 731.852 749.5C734.185 743.667 736.352 737.917 738.352 732.25C740.352 726.583 741.935 721.833 743.102 718C744.435 714 745.102 711.583 745.102 710.75C745.102 709.417 745.602 708.167 746.602 707C747.602 705.833 748.768 705.25 750.102 705.25C750.602 704.75 751.768 704.417 753.602 704.25C755.435 703.917 756.685 703.75 757.352 703.75C757.352 703.75 757.685 704.083 758.352 704.75C759.018 705.417 760.018 706.417 761.352 707.75C762.685 708.917 763.935 710.25 765.102 711.75C766.435 713.25 767.102 715 767.102 717C767.102 719.167 766.768 721.25 766.102 723.25C765.602 725.25 764.602 728 763.102 731.5C761.602 734.833 759.268 739.833 756.102 746.5C754.768 749.833 753.352 753 751.852 756C750.352 758.833 749.602 760.583 749.602 761.25C749.602 761.917 749.268 762.917 748.602 764.25C748.102 765.583 747.518 767.25 746.852 769.25C746.185 770.583 745.268 772.583 744.102 775.25C742.935 777.75 741.685 780.5 740.352 783.5C739.185 786.333 738.185 788.833 737.352 791C736.518 793 736.102 794.167 736.102 794.5C736.102 795.167 736.018 795.833 735.852 796.5C735.852 797.167 735.518 797.833 734.852 798.5C734.185 798.5 733.768 799 733.602 800C733.602 800.833 733.602 801.25 733.602 801.25C733.602 802.917 732.268 807.333 729.602 814.5C726.935 823.667 724.435 832.083 722.102 839.75C719.935 847.417 718.852 853.583 718.852 858.25C718.852 862.25 718.185 865.333 716.852 867.5C715.685 869.667 714.435 871.083 713.102 871.75ZM753.535 863C751.868 862 750.035 860.583 748.035 858.75C746.035 856.75 745.035 854.833 745.035 853C745.035 850.5 745.368 847.417 746.035 843.75C746.702 839.917 747.368 836.667 748.035 834C748.368 831 748.785 828 749.285 825C749.952 821.833 751.118 818.917 752.785 816.25C754.618 809.917 756.535 803.667 758.535 797.5C760.535 791.167 762.285 784.667 763.785 778C765.952 771.833 767.868 766.417 769.535 761.75C771.368 756.917 773.618 750.833 776.285 743.5C777.785 739.333 779.035 734.917 780.035 730.25C781.202 725.417 782.952 721.083 785.285 717.25C786.285 715.75 787.035 714.5 787.535 713.5C788.202 712.333 788.868 711.25 789.535 710.25C789.702 709.583 790.535 709 792.035 708.5C793.702 708 795.368 707.75 797.035 707.75C798.868 707.583 800.118 707.917 800.785 708.75C801.285 708.583 802.118 709.25 803.285 710.75C804.452 712.083 805.535 713.667 806.535 715.5C807.702 717.167 808.202 718.5 808.035 719.5C808.035 720.167 807.868 721.083 807.535 722.25C807.368 723.417 806.952 724.5 806.285 725.5C805.618 726.167 804.952 727.167 804.285 728.5C803.785 729.667 802.952 731.333 801.785 733.5C801.118 735.667 800.535 737.917 800.035 740.25C799.535 742.417 798.868 744.417 798.035 746.25C797.368 748.25 796.535 750.167 795.535 752C794.702 753.833 794.118 755.333 793.785 756.5C792.618 760.333 791.202 764.083 789.535 767.75C788.035 771.417 786.702 775.333 785.535 779.5C784.368 783.5 783.202 787.667 782.035 792C780.868 796.167 779.202 800.167 777.035 804C775.868 805.833 775.035 808.167 774.535 811C774.035 813.833 773.535 816.667 773.035 819.5C772.035 822.5 771.118 825.333 770.285 828C769.618 830.5 769.285 832.083 769.285 832.75C768.285 836.417 767.535 840.083 767.035 843.75C766.702 847.25 765.868 850.333 764.535 853C764.368 854.667 763.785 856.5 762.785 858.5C761.785 860.5 760.452 862 758.785 863C757.285 864 755.535 864 753.535 863ZM808.219 866.75C801.719 864.083 797.219 859.75 794.719 853.75C792.219 847.75 791.552 839.75 792.719 829.75C793.052 824.583 792.885 821.167 792.219 819.5C791.552 817.667 790.302 815.917 788.469 814.25C787.969 813.583 786.802 812.5 784.969 811C783.135 809.333 782.302 808.083 782.469 807.25C782.302 806.083 782.552 804.667 783.219 803C783.885 801.167 784.469 800.167 784.969 800C786.135 799.5 787.302 798.917 788.469 798.25C789.802 797.583 790.802 797.417 791.469 797.75C792.135 797.75 793.135 798.167 794.469 799C795.969 799.833 796.719 800.583 796.719 801.25C797.385 802.417 798.385 801.917 799.719 799.75C801.219 797.583 802.802 794.833 804.469 791.5C806.135 788.833 808.219 786.333 810.719 784C813.219 781.667 815.719 779.583 818.219 777.75C820.885 775.75 823.135 774.25 824.969 773.25C825.802 772.917 827.385 772.417 829.719 771.75C832.219 771.083 834.802 770.583 837.469 770.25C840.135 769.75 842.135 769.583 843.469 769.75C846.469 769.917 849.635 771.167 852.969 773.5C856.302 775.833 858.885 778 860.719 780C862.885 781.5 864.302 783.833 864.969 787C865.802 790 866.135 793.167 865.969 796.5C865.802 799.833 865.135 802.667 863.969 805C863.469 806.667 861.719 809 858.719 812C855.719 815 852.385 817.917 848.719 820.75C845.219 823.417 842.219 825.25 839.719 826.25C837.552 826.75 834.969 827.167 831.969 827.5C828.969 827.667 826.135 827.667 823.469 827.5C820.969 827.167 819.219 826.75 818.219 826.25C817.052 825.583 816.052 825.833 815.219 827C814.552 828 813.969 830.833 813.469 835.5C813.302 837.333 813.302 838.917 813.469 840.25C813.802 841.583 814.135 842.583 814.469 843.25C815.635 845.25 816.802 846.75 817.969 847.75C819.135 848.583 821.302 848.833 824.469 848.5C827.635 848.167 830.802 846.25 833.969 842.75C837.302 839.083 840.302 836.167 842.969 834C843.635 832.833 845.052 832.083 847.219 831.75C849.552 831.25 852.302 831.417 855.469 832.25C857.302 833.417 858.135 835.25 857.969 837.75C857.969 840.25 856.635 843.917 853.969 848.75C853.469 849.917 852.052 851.667 849.719 854C847.552 856.167 845.135 858.417 842.469 860.75C839.969 862.917 837.885 864.5 836.219 865.5C831.219 868.167 826.302 869.417 821.469 869.25C816.635 869.083 812.219 868.25 808.219 866.75ZM826.719 810.5C829.219 809.833 831.302 809.167 832.969 808.5C834.802 807.833 836.552 806.75 838.219 805.25C839.885 803.75 841.802 801.5 843.969 798.5C844.635 796.667 844.969 795.083 844.969 793.75C845.135 792.417 845.052 791.583 844.719 791.25C843.385 789.917 841.885 789.5 840.219 790C838.719 790.333 837.052 791.167 835.219 792.5C834.052 793 832.385 794.083 830.219 795.75C828.219 797.25 826.219 799 824.219 801C822.385 802.833 820.885 804.583 819.719 806.25C818.719 807.75 818.552 808.667 819.219 809C818.885 809.667 819.802 810.083 821.969 810.25C824.302 810.417 825.885 810.5 826.719 810.5ZM887.965 860.5C887.298 860.5 885.715 859.917 883.215 858.75C880.715 857.417 879.132 856.417 878.465 855.75C877.298 854.417 876.548 853 876.215 851.5C875.882 849.833 875.715 846.667 875.715 842C875.715 836.667 876.798 830.667 878.965 824C881.132 817.167 884.798 808.083 889.965 796.75L900.215 776C901.048 774.833 901.798 773.833 902.465 773C903.132 772 903.882 771.083 904.715 770.25C905.048 770.25 905.465 770.25 905.965 770.25C906.632 770.25 907.132 770.333 907.465 770.5C908.965 770.667 911.298 771.583 914.465 773.25C917.798 774.917 919.798 777.417 920.465 780.75C920.465 782.917 920.132 785.5 919.465 788.5C918.798 791.333 916.798 795.083 913.465 799.75C912.132 801.417 910.798 803.833 909.465 807C908.298 810.167 907.215 813.167 906.215 816C906.048 816.333 905.548 817.167 904.715 818.5C904.048 819.667 903.382 820.917 902.715 822.25C902.048 823.417 901.715 824.167 901.715 824.5L900.715 826.75L911.465 816.25C918.965 808.75 925.298 803.417 930.465 800.25C935.632 797.083 939.965 795.75 943.465 796.25C947.132 796.75 950.048 798.833 952.215 802.5C953.382 804.167 954.215 806 954.715 808C955.215 809.833 955.548 812 955.715 814.5C955.882 817 955.798 820.167 955.465 824V838.25C958.632 837.417 961.048 836.75 962.715 836.25C964.382 835.583 966.048 835 967.715 834.5C969.048 834.167 970.382 833.833 971.715 833.5C973.215 833.167 975.048 832.917 977.215 832.75C977.048 834.917 976.132 837.583 974.465 840.75C972.798 843.917 970.715 847.083 968.215 850.25C965.882 853.417 963.298 856.083 960.465 858.25C957.798 860.417 955.298 861.5 952.965 861.5C950.798 861.5 948.298 860.833 945.465 859.5C942.632 858 940.215 855.167 938.215 851C937.548 848.833 936.882 846.333 936.215 843.5C935.548 840.667 935.215 837.667 935.215 834.5V823.5C935.215 822.5 935.132 821.833 934.965 821.5C934.965 821 934.882 820.75 934.715 820.75C934.048 820.75 931.882 822.5 928.215 826C924.715 829.5 921.132 833.167 917.465 837C909.798 845 903.382 850.917 898.215 854.75C893.215 858.583 889.798 860.5 887.965 860.5Z" fill="#333333"/>
</svg>
